Coordinates
version=1
nRows=13
nColumns=40
inDegrees=yes

Units are S.I. units (second, meters, Newtons, ...)
Angles are in degrees.

endheader
time	pelvis_tilt	pelvis_list	pelvis_rotation	pelvis_tx	pelvis_ty	pelvis_tz	hip_flexion_r	hip_adduction_r	hip_rotation_r	knee_angle_r	knee_angle_r_beta	ankle_angle_r	subtalar_angle_r	mtp_angle_r	hip_flexion_l	hip_adduction_l	hip_rotation_l	knee_angle_l	knee_angle_l_beta	ankle_angle_l	subtalar_angle_l	mtp_angle_l	lumbar_extension	lumbar_bending	lumbar_rotation	arm_flex_r	arm_add_r	arm_rot_r	elbow_flex_r	pro_sup_r	wrist_flex_r	wrist_dev_r	arm_flex_l	arm_add_l	arm_rot_l	elbow_flex_l	pro_sup_l	wrist_flex_l	wrist_dev_l
     27.98342857	     -4.36893872	     -4.68773396	      3.02401097	      0.75870108	      0.93006461	      0.52748381	     12.05868186	      3.29086427	    -15.52156639	     17.20322902	     17.20322902	     12.00320417	      5.87520645	     -2.96185989	     32.70651386	    -11.14510910	     -2.46137753	     26.98797560	     26.98797560	      8.94200980	    -15.83982306	     14.82156828	    -11.96626959	      9.25482104	      3.04163336	     29.62248165	    -18.11043918	     -9.87518156	     65.87774258	     45.28585754	      0.00000000	      0.00000000	     -5.19939700	     -9.92531435	     -8.41998822	     41.80432992	     47.01332624	      0.00000000	      0.00000000
     27.99685714	     -4.37558222	     -4.77338309	      3.16912737	      0.75673253	      0.92960444	      0.52704667	     11.80935373	      3.34341191	    -15.60888504	     17.37577135	     17.37577135	     12.37408991	      5.84370786	     -3.09328976	     32.60377010	    -11.05459640	     -2.53644078	     24.30078898	     24.30078898	      8.78498002	    -14.35495030	     14.99111588	    -11.87221791	      9.51924210	      3.25960707	     30.61839568	    -18.14460187	     -9.83792610	     66.71000888	     45.26204702	      0.00000000	      0.00000000	     -5.73524646	     -9.83302370	     -8.40035915	     41.51881830	     46.99744257	      0.00000000	      0.00000000
     28.01028571	     -4.18531879	     -4.71957449	      3.26605708	      0.75499759	      0.92951333	      0.52648288	     11.27518525	      3.23303821	    -15.79962529	     17.48503460	     17.48503460	     12.86989669	      6.19254908	     -2.91770556	     32.25430506	    -10.92978982	     -2.92955390	     22.06683492	     22.06683492	      8.27039036	    -12.71103347	     13.97084509	    -12.03237288	      9.64526808	      3.16846808	     31.25648183	    -17.86853208	     -9.29768916	     69.20720887	     45.17086059	      0.00000000	      0.00000000	     -6.35095213	     -9.83518405	     -8.39049431	     40.82653973	     46.95720868	      0.00000000	      0.00000000
     28.02371429	     -4.11847882	     -4.65393336	      3.33435942	      0.75318424	      0.92936986	      0.52583105	     10.87644409	      3.15254790	    -15.72537028	     17.55939187	     17.55939187	     13.27364252	      6.12726432	     -2.99480274	     32.14219930	    -10.75441414	     -3.09454854	     20.47735502	     20.47735502	      7.99815798	    -11.51104638	     14.04710621	    -12.00094548	      9.73031638	      3.21708721	     32.15268749	    -17.57607627	     -9.21667388	     70.23191786	     45.14004399	      0.00000000	      0.00000000	     -6.83486450	     -9.74278977	     -8.29772743	     40.46505826	     46.93142825	      0.00000000	      0.00000000
     28.03714286	     -4.01888190	     -4.63774610	      3.38490050	      0.75145856	      0.92924469	      0.52518967	     10.38037095	      3.13904549	    -15.67959453	     17.51846711	     17.51846711	     13.64521249	      6.18814999	     -2.92237665	     32.19124897	    -10.70703715	     -3.33386381	     19.70827274	     19.70827274	      7.70584611	    -10.33354824	     13.49935932	    -12.04597233	      9.84826420	      3.08920700	     32.83033116	    -17.06270308	     -8.94145685	     72.23481382	     45.07406642	      0.00000000	      0.00000000	     -7.40999472	     -9.70315797	     -8.11878803	     39.84433568	     46.88342730	      0.00000000	      0.00000000
     28.05057143	     -3.92362851	     -4.53240463	      3.40613300	      0.74977761	      0.92928707	      0.52442631	      9.85205995	      3.04008019	    -15.57802709	     17.42843261	     17.42843261	     14.01296123	      6.16144820	     -2.90766799	     32.20551538	    -10.55991949	     -3.54070384	     19.35674510	     19.35674510	      7.33612584	     -9.66033631	     13.19086229	    -12.05038654	      9.87136183	      3.01362380	     33.37532865	    -16.51592909	     -8.74589036	     73.76135222	     45.02394741	      0.00000000	      0.00000000	     -7.90633775	     -9.66351514	     -7.96414797	     39.33391157	     46.84725146	      0.00000000	      0.00000000
     28.06400000	     -3.92457617	     -4.46340898	      3.43604318	      0.74814210	      0.92924108	      0.52362546	      9.46795702	      2.95263070	    -15.50378268	     17.41507686	     17.41507686	     14.29571220	      6.15318518	     -2.98189085	     32.33212171	    -10.39189891	     -3.35984490	     19.43959244	     19.43959244	      7.03251059	     -9.44339578	     13.24330140	    -11.80014926	      9.83649657	      3.38424632	     33.66239054	    -16.38848025	     -8.69701774	     73.94761300	     45.01741148	      0.00000000	      0.00000000	     -8.15878092	     -9.61302161	     -7.95769697	     39.23116859	     46.84228461	      0.00000000	      0.00000000
     28.07742857	     -3.79566140	     -4.36944286	      3.29929794	      0.74665250	      0.92927545	      0.52284572	      8.76115846	      2.91186586	    -15.27610686	     17.05785166	     17.05785166	     14.62283402	      6.28148820	     -2.92472451	     32.43139918	    -10.34278676	     -3.48940492	     20.24703110	     20.24703110	      6.83363421	     -9.33931014	     12.69527929	    -11.98581263	      9.88179551	      3.01666071	     34.57834302	    -15.36187210	     -8.39164129	     76.15161584	     44.94041790	      0.00000000	      0.00000000	     -8.85565882	     -9.48596563	     -7.76416435	     38.54607405	     46.80182615	      0.00000000	      0.00000000
     28.09085714	     -3.74127370	     -4.36818738	      3.22427380	      0.74539610	      0.92922082	      0.52202558	      8.11344751	      2.95578585	    -15.11620108	     16.68289377	     16.68289377	     14.88813585	      6.43008975	     -2.84966080	     32.46060912	    -10.33525260	     -3.45055658	     21.09090175	     21.09090175	      6.54248671	     -9.19675302	     12.01471702	    -11.93492257	      9.94058197	      2.88593945	     34.69816458	    -14.66816602	     -8.01343460	     78.41825036	     44.85893388	      0.00000000	      0.00000000	     -9.38888481	     -9.38724365	     -7.59566142	     37.98473697	     46.76430833	      0.00000000	      0.00000000
     28.10428571	     -3.67770613	     -4.31407348	      3.05586593	      0.74435472	      0.92919376	      0.52117172	      7.42800160	      2.93857909	    -14.92305657	     16.29141581	     16.29141581	     15.16950843	      6.64723640	     -2.76944541	     32.24168333	    -10.29183558	     -3.50857704	     21.86776291	     21.86776291	      6.00403619	     -9.19017658	     10.98215962	    -11.90735184	      9.91277624	      3.41121325	     34.07531341	    -14.75158803	     -7.67322602	     81.74433567	     44.75539099	      0.00000000	      0.00000000	     -9.50167632	     -9.30217165	     -7.27901078	     37.45792562	     46.70227032	      0.00000000	      0.00000000
     28.11771429	     -3.59538858	     -4.32638367	      2.86827945	      0.74341733	      0.92903948	      0.52022953	      6.75707873	      2.95630694	    -14.77651476	     15.98101787	     15.98101787	     15.45304818	      6.97900524	     -2.75250218	     31.93287819	    -10.24811444	     -3.26855597	     22.76086264	     22.76086264	      5.70677423	     -9.43120946	     10.41769699	    -11.88216685	      9.94624236	      3.90070645	     33.78306849	    -14.59744772	     -7.66830093	     84.08707084	     44.70531346	      0.00000000	      0.00000000	     -9.66695269	     -9.23012066	     -6.75775707	     36.92026711	     46.61018515	      0.00000000	      0.00000000
     28.13114286	     -3.57049986	     -4.41886026	      2.65779571	      0.74263770	      0.92870178	      0.51928849	      6.09321255	      3.06320396	    -14.66145905	     15.57161089	     15.57161089	     15.70658989	      7.36520116	     -2.71670014	     31.57906054	    -10.26415547	     -3.03539318	     23.62419040	     23.62419040	      5.63780833	     -9.64484191	     10.31652816	    -11.71933596	     10.03637715	      3.89540268	     33.89614098	    -13.96129735	     -7.39991467	     85.55085740	     44.66080767	      0.00000000	      0.00000000	    -10.18672976	     -9.11098787	     -6.51199263	     36.57015172	     46.56223801	      0.00000000	      0.00000000
     28.14457143	     -3.50818222	     -4.50122674	      2.41924672	      0.74206767	      0.92834548	      0.51819688	      5.41967733	      3.12508971	    -14.54621502	     15.25770596	     15.25770596	     15.99539061	      7.80342431	     -2.69611154	     31.01620923	    -10.24860642	     -2.87944781	     24.32652335	     24.32652335	      5.62697611	     -9.80972735	     10.33812688	    -11.61034513	     10.10205728	      3.98572701	     33.85557945	    -13.55138714	     -7.03180621	     87.07005517	     44.61063350	      0.00000000	      0.00000000	    -10.62467659	     -9.02475419	     -6.31624182	     36.37756498	     46.52297445	      0.00000000	      0.00000000
